 <svg  version="1.0" xmlns="http://www.w3.org/2000/svg"  width="300.000000pt" height="237.000000pt" viewBox="0 0 300.000000 237.000000"  preserveAspectRatio="xMidYMid meet">  <g transform="translate(0.000000,237.000000) scale(0.100000,-0.100000)" fill="#ffffff" stroke="none"> <path d="M1145 2220 c-16 -24 -25 -29 -43 -25 -17 4 -32 -2 -54 -24 -24 -23 -37 -29 -58 -25 -40 8 -90 -37 -90 -81 0 -39 -12 -51 -31 -29 -21 25 -70 46 -94 40 -29 -7 -84 -65 -105 -108 -12 -26 -23 -34 -53 -39 -51 -8 -55 -15 -9 -22 85 -14 127 -113 72 -172 -51 -55 -114 -69 -171 -39 -38 19 -63 75 -54 120 7 38 50 94 72 94 11 0 7 -9 -12 -32 -22 -26 -26 -39 -22 -71 7 -54 31 -77 79 -77 48 0 98 43 98 85 0 34 -42 75 -76 75 l-26 0 31 -35 c32 -37 32 -58 -1 -76 -45 -24 -79 20 -59 75 16 39 14 54 -8 66 -28 14 -67 -5 -92 -47 -21 -34 -33 -40 -44 -23 -9 15 -81 12 -121 -5 -58 -24 -131 -75 -144 -101 -12 -21 -10 -32 20 -92 19 -37 61 -112 93 -167 33 -55 63 -110 68 -122 10 -26 22 -29 38 -9 9 11 5 23 -18 57 -57 85 -182 319 -176 329 4 6 11 8 16 5 5 -3 21 6 36 20 36 33 127 67 158 59 13 -3 27 -15 30 -25 7 -22 -26 -81 -57 -103 -19 -14 -18 -15 23 -26 116 -30 189 -57 189 -72 0 -4 -10 -8 -22 -8 -42 1 -258 70 -258 83 0 2 24 28 52 58 l53 54 -35 3 c-33 3 -150 -42 -150 -59 0 -3 24 -46 53 -95 29 -49 71 -120 92 -159 21 -38 40 -72 41 -74 2 -2 10 2 19 9 12 10 15 10 15 -3 0 -8 -18 -31 -39 -50 -29 -26 -36 -37 -25 -41 27 -10 94 50 94 85 0 6 -17 30 -38 54 -41 48 -89 131 -80 140 3 3 45 -6 93 -20 105 -30 106 -30 139 -4 19 15 24 27 20 43 -4 19 1 23 38 33 48 13 114 70 124 107 5 21 13 24 61 28 48 4 61 10 88 40 27 29 35 33 55 24 19 -9 27 -5 53 24 17 19 37 34 45 32 7 -2 19 1 25 6 18 14 122 8 141 -7 15 -13 20 -12 37 5 20 20 20 20 -1 47 -21 26 -21 28 -4 56 16 27 17 39 6 117 -8 63 -17 92 -31 106 -28 25 -43 23 -66 -12z m57 -56 c10 -74 9 -164 -1 -164 -14 0 -31 91 -31 161 0 75 22 77 32 3z m-68 -114 c17 -64 21 -98 15 -105 -15 -15 -36 19 -44 68 -11 63 -24 80 -25 31 -1 -129 -33 -140 -79 -26 -36 90 -36 92 -17 92 8 0 25 -23 39 -51 l24 -51 7 68 c13 129 42 120 80 -26z m-170 38 c3 -13 9 -59 12 -103 5 -62 3 -84 -9 -99 -14 -19 -15 -19 -25 0 -6 12 -8 59 -5 122 6 99 14 125 27 80z m-120 -78 c14 -17 30 -49 36 -70 27 -99 -82 -163 -151 -89 -37 40 -38 86 -4 146 22 37 30 43 60 43 25 0 40 -8 59 -30z"/> <path d="M746 1998 c-26 -36 -21 -93 10 -117 49 -38 84 -22 84 39 0 19 -8 47 -17 60 -32 47 -54 52 -77 18z"/> <path d="M2061 1938 c-1 -21 -12 -23 -29 -6 -9 9 -12 8 -12 -5 0 -11 -8 -17 -24 -17 -19 0 -23 -4 -19 -20 4 -17 0 -20 -23 -20 -26 -1 -27 -2 -11 -14 22 -17 22 -22 -5 -31 l-23 -8 23 -4 c23 -5 23 -5 5 -25 -18 -21 -18 -21 11 -14 27 7 28 5 22 -18 -6 -24 -5 -25 19 -16 22 9 25 7 25 -15 0 -28 15 -41 24 -20 8 22 26 18 26 -6 0 -11 5 -17 10 -14 6 3 10 16 10 28 0 16 3 18 12 9 19 -19 28 -14 28 13 0 14 4 25 9 25 5 0 8 14 6 30 -2 35 -15 53 -15 22 0 -31 -20 -70 -39 -75 -9 -2 -28 0 -41 5 -20 7 -22 11 -10 18 10 7 11 10 3 10 -7 0 -13 4 -13 9 0 4 12 6 26 3 17 -3 23 -9 20 -19 -4 -9 -1 -13 6 -10 7 2 11 14 10 27 -3 17 0 21 12 17 10 -4 16 -1 16 9 0 8 -4 13 -9 10 -5 -3 -12 1 -15 10 -9 23 -8 26 7 18 6 -4 3 2 -7 14 -22 26 -28 28 -20 8 4 -11 0 -13 -16 -9 -13 4 -19 11 -16 20 4 9 1 13 -6 11 -7 -3 -13 -13 -13 -24 0 -12 -6 -18 -17 -18 -10 1 -18 -4 -18 -12 0 -7 6 -11 14 -8 8 3 16 -3 19 -16 4 -17 2 -20 -11 -15 -13 5 -13 2 3 -15 10 -11 13 -20 7 -20 -15 0 -52 49 -52 70 0 10 9 29 21 44 30 38 79 36 113 -5 21 -24 29 -28 43 -20 16 9 15 10 -6 11 -19 0 -23 4 -19 23 4 19 0 22 -21 22 -18 0 -27 7 -32 25 -4 16 -7 19 -8 8z m18 -107 c16 -28 -13 -51 -36 -28 -18 18 -11 47 11 47 9 0 20 -9 25 -19z"/> <path d="M1865 1922 c-35 -22 -98 -90 -115 -124 -12 -26 -13 -26 60 63 16 20 48 46 72 58 24 11 36 21 28 21 -8 0 -28 -8 -45 -18z"/> <path d="M1711 1848 c-1 -49 -24 -78 -62 -78 -9 0 -22 -7 -29 -15 -7 -9 -15 -13 -18 -10 -5 4 -70 -40 -82 -56 -3 -3 -21 -14 -40 -24 -45 -23 -86 -58 -122 -103 -36 -45 -76 -72 -153 -102 -39 -16 -84 -46 -126 -85 -37 -33 -85 -72 -108 -87 -50 -34 -60 -66 -34 -110 29 -51 63 -63 137 -48 91 18 150 47 195 96 36 39 45 44 84 44 29 0 55 -8 78 -23 29 -20 34 -28 32 -58 -2 -18 -6 -91 -9 -161 -7 -142 -3 -136 -82 -118 -67 16 -284 -30 -384 -81 -47 -24 -84 -69 -66 -81 7 -4 9 -8 4 -8 -17 0 28 -29 46 -30 15 0 16 -3 2 -35 -34 -82 -6 -148 96 -231 64 -51 73 -56 105 -50 28 6 41 2 68 -18 38 -29 174 -94 257 -122 34 -12 84 -19 130 -20 41 0 110 -8 153 -17 44 -9 116 -20 161 -23 70 -6 91 -3 146 16 36 13 72 29 80 36 8 7 35 20 60 30 25 9 52 22 60 29 8 7 23 15 32 18 35 12 59 68 54 124 -11 115 -59 171 -184 214 -30 10 -61 24 -68 30 -15 12 -18 49 -8 87 6 22 6 22 41 -8 40 -36 72 -38 101 -7 20 22 22 33 22 164 0 134 -12 209 -31 197 -5 -3 -9 0 -9 7 0 7 -17 27 -38 45 -57 49 -99 167 -106 297 -5 108 -8 101 67 162 37 30 68 100 66 149 0 12 -8 -7 -17 -40 -14 -52 -24 -68 -62 -99 -25 -21 -55 -42 -67 -48 -20 -9 -21 -15 -17 -86 10 -175 12 -188 38 -239 30 -60 31 -62 11 -62 -8 0 -15 5 -15 10 0 6 -7 10 -16 10 -14 0 -14 -2 1 -16 10 -10 13 -24 9 -36 -4 -15 -2 -19 7 -16 8 3 13 13 13 22 -1 9 4 16 12 16 8 0 14 -6 14 -13 0 -20 37 -50 51 -41 7 4 10 3 5 -4 -3 -6 3 -16 14 -22 11 -6 18 -15 15 -21 -4 -5 -1 -8 7 -7 10 2 14 -30 16 -154 l3 -158 -35 0 c-30 0 -36 4 -50 40 -11 28 -16 72 -16 140 0 61 -4 100 -10 100 -6 0 -28 11 -50 25 l-40 25 0 68 c0 47 -5 74 -16 88 -15 19 -16 19 -8 -1 4 -11 10 -56 14 -100 7 -80 39 -185 67 -217 10 -11 11 -18 3 -23 -5 -3 -8 -10 -6 -13 2 -4 -3 -32 -11 -62 -8 -30 -18 -92 -22 -138 -6 -65 -13 -88 -29 -104 -20 -20 -22 -20 -46 -4 -14 9 -29 28 -32 42 -8 32 2 197 15 241 7 25 4 41 -16 85 -25 52 -51 206 -57 338 -4 81 -5 85 -15 74 -16 -16 -18 -119 -2 -110 5 4 12 -33 15 -81 4 -49 13 -122 20 -163 17 -86 12 -225 -10 -310 -8 -30 -14 -71 -14 -91 0 -72 -65 -78 -101 -9 -16 30 -19 58 -19 191 0 123 -4 171 -20 230 -11 41 -20 108 -21 149 -1 41 -4 62 -6 47 -4 -23 -8 -27 -26 -21 -12 3 -23 7 -24 8 0 0 1 32 4 69 4 43 9 64 14 55 6 -9 9 -5 9 13 0 28 -47 145 -56 137 -2 -3 5 -25 16 -51 18 -40 19 -53 10 -114 -5 -37 -10 -74 -10 -80 0 -7 -7 -13 -15 -13 -19 0 -44 -58 -41 -95 2 -16 -1 -39 -7 -50 -7 -15 -7 -17 2 -9 7 6 14 20 16 30 2 11 4 20 5 22 2 1 4 11 5 22 1 11 3 21 5 23 1 1 3 10 5 20 5 25 13 33 25 21 5 -5 3 -34 -5 -74 -8 -36 -14 -118 -15 -183 0 -112 -1 -119 -25 -142 -40 -41 -95 -25 -118 34 -40 99 -23 282 40 447 3 8 0 14 -6 14 -6 0 -11 -12 -11 -27 0 -20 -3 -24 -11 -16 -12 12 -8 112 6 148 7 17 6 18 -6 7 -18 -16 -25 -142 -10 -171 18 -32 -12 -28 -39 6 -24 30 -30 33 -116 40 -50 4 -64 2 -75 -12 -62 -76 -133 -115 -232 -130 -56 -9 -87 11 -87 54 0 21 9 30 43 45 23 11 69 48 102 81 39 40 75 66 100 75 22 7 50 18 62 26 18 11 22 11 27 -1 14 -38 82 0 72 40 -4 14 2 32 14 47 11 14 16 29 12 33 -4 5 -2 6 4 2 5 -3 23 8 38 24 16 16 45 38 65 48 20 11 45 29 56 41 40 45 114 73 210 80 l90 7 -69 1 -68 2 6 33 c3 17 2 46 -3 62 -9 28 -9 27 -10 -17z m-376 -394 c-18 -13 -35 -10 -35 5 0 4 10 13 23 18 28 13 37 -5 12 -23z m384 -401 c7 -21 15 -82 18 -135 5 -93 5 -98 -14 -98 -12 0 -25 6 -30 13 -11 14 -5 257 6 257 4 0 13 -17 20 -37z m-313 -194 c38 -12 78 -31 89 -44 25 -26 89 -38 135 -25 19 5 38 6 44 1 6 -5 26 -12 43 -16 32 -6 56 -25 33 -25 -7 0 -9 -8 -5 -21 7 -20 5 -21 -31 -14 -22 5 -57 11 -79 15 -31 6 -34 8 -12 9 53 2 26 18 -60 36 -133 26 -293 29 -293 4 0 -4 20 -11 45 -15 60 -9 57 -24 -4 -24 -55 0 -84 -8 -76 -21 3 -5 -7 -11 -22 -15 -34 -9 -41 -18 -35 -49 7 -39 71 -96 147 -130 85 -39 140 -54 265 -70 93 -12 94 -13 35 -15 l-60 -2 33 -14 c18 -8 67 -17 110 -20 94 -7 115 -13 87 -24 -12 -5 24 -9 93 -9 112 -1 234 17 298 44 31 13 52 50 30 53 -6 1 -39 5 -74 9 -75 9 -78 28 -5 28 28 0 49 4 46 8 -7 12 33 -1 76 -24 26 -14 38 -16 48 -7 22 18 -8 42 -123 98 -74 37 -101 55 -97 66 7 19 14 18 53 -11 19 -14 36 -21 38 -15 2 6 30 -4 64 -22 48 -25 65 -41 79 -73 10 -22 19 -46 19 -53 0 -22 -40 -72 -74 -93 -29 -18 -30 -19 -8 -19 14 0 39 15 59 35 41 41 43 42 36 15 -8 -28 -55 -65 -105 -83 -90 -30 -115 -36 -190 -43 -45 -4 -75 -11 -72 -16 6 -9 69 -6 159 7 l30 5 -30 -15 c-16 -8 -45 -14 -62 -15 -18 0 -33 -4 -33 -10 0 -26 -291 12 -406 54 -50 18 -61 20 -60 8 2 -8 13 -20 27 -28 44 -24 -2 -15 -105 22 -164 59 -286 127 -286 159 0 20 -19 28 -35 15 -10 -9 -20 -7 -41 7 l-27 18 31 -44 c18 -24 31 -46 29 -48 -2 -1 -43 34 -90 80 -79 75 -87 86 -87 120 0 47 21 88 57 116 26 19 27 20 6 21 -28 0 -39 17 -16 24 10 2 0 2 -22 -1 -22 -3 -48 -10 -58 -15 -10 -5 -21 -7 -24 -4 -12 12 20 34 84 59 135 52 241 69 284 46 11 -5 28 -9 37 -7 10 3 -1 10 -28 20 -43 16 -44 16 -14 17 18 1 63 -9 100 -20z m174 -126 c14 -9 27 -20 30 -23 7 -9 59 -28 97 -35 25 -5 35 -14 47 -46 35 -86 111 -116 160 -64 27 29 39 31 56 10 14 -17 71 -20 87 -4 11 11 73 3 73 -10 0 -3 -13 -12 -29 -18 -16 -6 -34 -20 -40 -32 -10 -18 -8 -25 13 -46 l25 -25 -22 -12 c-51 -28 -344 -6 -390 29 -15 12 -94 35 -202 58 -130 29 -255 96 -255 137 0 17 44 43 86 52 18 4 40 16 50 27 14 16 31 19 103 19 65 0 93 -4 111 -17z"/> <path d="M2161 1729 c-1 -21 -65 -105 -85 -112 -11 -5 -20 4 -30 27 -8 18 -19 37 -25 40 -5 4 0 -14 12 -39 12 -25 25 -45 29 -45 28 0 114 109 105 133 -4 8 -6 6 -6 -4z"/> <path d="M1810 1690 c0 -5 9 -10 20 -10 27 0 25 -18 -3 -29 -13 -5 -29 -16 -36 -25 -22 -27 -42 -20 -35 12 5 22 4 25 -6 15 -15 -14 -20 -93 -5 -90 5 1 9 8 7 15 -5 21 23 13 33 -10 6 -13 24 -27 41 -33 33 -11 41 -32 10 -27 -11 2 -17 -1 -14 -10 6 -16 87 -23 101 -9 8 8 3 11 -16 11 -17 0 -27 5 -27 15 0 8 7 15 15 15 8 0 22 11 31 25 22 34 37 32 29 -5 -4 -19 -3 -30 4 -30 15 0 14 97 -1 106 -8 5 -9 0 -6 -14 8 -29 -6 -28 -26 3 -9 14 -27 27 -41 31 -14 3 -25 13 -25 21 0 10 6 12 20 8 11 -3 20 -2 20 3 0 11 -34 22 -67 22 -13 0 -23 -4 -23 -10z m84 -82 c15 -21 14 -24 -3 -41 -17 -18 -20 -18 -50 -3 -35 18 -40 40 -13 55 27 16 50 13 66 -11z"/> <path d="M1456 1500 c-18 -110 -23 -134 -25 -122 0 6 -5 12 -10 12 -8 0 -5 -37 5 -70 9 -27 20 8 34 106 13 93 9 155 -4 74z"/> <path d="M2006 1389 c7 -64 32 -113 32 -64 0 14 -3 23 -7 21 -3 -2 -7 10 -8 27 -2 24 0 28 8 17 7 -11 9 -6 7 20 -2 24 -8 36 -21 38 -17 3 -18 -2 -11 -59z"/> <path d="M1564 1375 c1 -34 2 -35 38 -35 20 0 40 4 43 10 4 6 -6 7 -25 4 -19 -4 -30 -2 -30 4 0 6 7 9 15 6 9 -4 15 0 15 10 0 10 6 13 15 10 8 -4 15 -1 15 5 0 6 -13 11 -29 11 -16 0 -36 2 -43 5 -11 4 -14 -3 -14 -30z"/> <path d="M1218 1316 c9 -19 19 -33 24 -30 9 6 -21 64 -33 64 -4 0 0 -16 9 -34z"/> <path d="M1821 1198 c-22 -60 -23 -68 -6 -68 11 0 15 5 11 15 -3 10 1 15 13 15 10 0 22 -7 25 -16 3 -8 11 -12 17 -8 7 4 7 9 1 13 -5 3 -17 21 -26 39 -20 38 -24 39 -35 10z"/> <path d="M1940 1176 c0 -10 7 -12 22 -8 19 5 21 2 15 -26 -6 -28 -4 -32 14 -32 16 0 19 4 14 18 -12 28 -11 47 3 45 6 -2 12 2 12 7 0 6 -18 10 -40 10 -28 0 -40 -4 -40 -14z"/> <path d="M2198 1085 c-7 -11 -1 -75 7 -83 12 -13 16 10 8 50 -5 23 -11 39 -15 33z"/> <path d="M1540 1000 c-11 -7 -6 -10 22 -10 20 0 45 -3 55 -6 16 -5 16 -4 -1 10 -22 18 -54 20 -76 6z"/> <path d="M1515 943 c11 -62 37 -98 72 -101 25 -2 34 2 44 20 12 23 12 23 -9 5 -11 -10 -28 -17 -38 -15 -23 4 -54 57 -57 97 -1 17 -6 31 -11 31 -4 0 -5 -17 -1 -37z"/> <path d="M1855 947 c-32 -24 -9 -38 30 -20 24 12 31 19 23 25 -18 11 -32 10 -53 -5z"/> <path d="M1887 900 c-3 -11 -11 -20 -19 -19 -10 0 -10 2 0 6 6 2 12 9 12 15 0 15 -25 3 -25 -13 0 -8 -4 -20 -8 -26 -12 -19 4 -15 32 6 14 10 26 26 27 35 3 23 -13 20 -19 -4z"/> <path d="M2036 894 c-3 -9 -3 -20 0 -26 4 -6 0 -14 -7 -19 -8 -5 -9 -9 -3 -9 5 0 19 7 30 15 16 13 17 16 4 25 -13 8 -13 10 2 10 9 0 20 5 23 10 3 6 -5 10 -18 10 -14 0 -28 -7 -31 -16z"/> <path d="M2200 891 c-5 -11 -9 -35 -9 -53 1 -26 3 -28 6 -8 9 61 14 72 29 66 9 -3 12 -1 9 4 -10 16 -23 12 -35 -9z"/> <path d="M1820 745 c-15 -18 1 -20 18 -3 9 9 18 9 38 -1 24 -11 26 -10 14 3 -16 20 -54 21 -70 1z"/> <path d="M2005 736 c-9 -7 -18 -30 -21 -56 l-4 -45 12 45 c10 34 19 46 38 50 20 5 22 7 8 12 -9 4 -24 1 -33 -6z"/> <path d="M1811 669 c-1 -49 24 -86 51 -76 9 4 7 6 -4 6 -22 1 -31 17 -39 71 l-6 45 -2 -46z"/> </g> </svg> 