<svg width="371.8" height="98.5" viewBox="0 0 371.8 98.5" xmlns="http://www.w3.org/2000/svg"><g id="svgGroup" stroke-linecap="round" fill-rule="evenodd" font-size="9pt" stroke="#ffffff" stroke-width="0.25mm" fill="#ffffff" style="stroke:#ffffff;stroke-width:0.25mm;fill:#ffffff"><path d="M 227.8 39.5 L 227.8 69.5 L 228.3 70 L 235.8 70 L 235.8 73.5 L 211.8 73.5 L 211.8 70 L 219.3 70 L 219.8 69.5 L 219.8 41.5 A 23.056 23.056 0 0 0 219.634 38.643 Q 219.451 37.184 219.068 35.973 A 9.974 9.974 0 0 0 218.1 33.8 Q 216.624 31.369 212.962 31.049 A 13.343 13.343 0 0 0 211.8 31 A 12.662 12.662 0 0 0 205.605 32.654 A 16.61 16.61 0 0 0 203.75 33.85 A 20.014 20.014 0 0 0 201.074 36.276 Q 198.573 38.95 195.971 43.218 A 68.141 68.141 0 0 0 195.8 43.5 L 195.8 69.5 L 196.3 70 L 203.8 70 L 203.8 73.5 L 179.8 73.5 L 179.8 70 L 187.3 70 L 187.8 69.5 L 187.8 4.5 L 187.3 4 L 179.8 4 L 179.8 0.5 Q 182.4 0.5 184.95 0.45 Q 187.5 0.4 190.1 0.3 Q 192.7 0.2 195.3 0 L 195.8 0.5 L 195.8 37 Q 198.7 32.3 203.1 29.4 A 17.052 17.052 0 0 1 209.065 26.979 A 24.148 24.148 0 0 1 214 26.5 A 25.03 25.03 0 0 1 217.176 26.688 Q 220.184 27.074 222.2 28.25 A 10.746 10.746 0 0 1 225.037 30.598 A 9.694 9.694 0 0 1 226.5 32.95 Q 227.8 35.9 227.8 39.5 Z M 98 68.5 L 98 43.5 A 26.938 26.938 0 0 0 97.78 39.946 Q 97.297 36.322 95.75 33.95 A 7.071 7.071 0 0 0 91.929 31.091 Q 90.661 30.668 89.089 30.547 A 16.935 16.935 0 0 0 87.8 30.5 A 25.969 25.969 0 0 0 84.145 30.748 A 21.478 21.478 0 0 0 82.05 31.15 Q 79.4 31.8 77.1 33.5 A 6.814 6.814 0 0 1 78.205 34.264 Q 78.849 34.817 79.232 35.48 A 4.139 4.139 0 0 1 79.35 35.7 Q 80 37 80 38.5 Q 80 40.7 78.5 42.1 Q 77 43.5 75 43.5 A 4.737 4.737 0 0 1 71.541 42.092 A 5.686 5.686 0 0 1 71.45 42 Q 70.008 40.508 70 37.929 A 9.238 9.238 0 0 1 70 37.9 Q 70 35.3 71.6 33.2 A 12.455 12.455 0 0 1 74.03 30.809 A 16.032 16.032 0 0 1 75.9 29.6 A 22.673 22.673 0 0 1 80.117 27.805 A 26.966 26.966 0 0 1 81.95 27.3 Q 85.3 26.5 88.7 26.5 A 29.472 29.472 0 0 1 93.681 26.904 A 23.472 23.472 0 0 1 97.4 27.85 Q 101.3 29.2 103.65 32.55 A 11.505 11.505 0 0 1 105.213 35.862 Q 105.656 37.329 105.849 39.088 A 26.655 26.655 0 0 1 106 42 L 106 65.8 A 6.392 6.392 0 0 0 106.413 68.031 A 7.674 7.674 0 0 0 106.65 68.6 Q 107.3 70 109.2 70 A 3.595 3.595 0 0 0 111.622 69.069 A 4.62 4.62 0 0 0 111.7 69 A 16.947 16.947 0 0 0 113.293 67.332 A 19.715 19.715 0 0 0 113.8 66.7 L 116.5 69 A 18.186 18.186 0 0 1 114.755 71.125 A 15.637 15.637 0 0 1 113.9 71.95 Q 112.5 73.2 110.8 73.85 A 9.602 9.602 0 0 1 108.729 74.376 A 12.878 12.878 0 0 1 106.9 74.5 A 12.855 12.855 0 0 1 104.116 74.213 A 9.531 9.531 0 0 1 101.1 73 A 6.785 6.785 0 0 1 98.148 69.055 A 9.059 9.059 0 0 1 98 68.5 A 16.848 16.848 0 0 1 94.273 71.619 A 21.131 21.131 0 0 1 92.1 72.8 A 17.042 17.042 0 0 1 87.88 74.126 Q 85.987 74.474 83.828 74.498 A 29.006 29.006 0 0 1 83.5 74.5 Q 77.715 74.5 73.86 72.409 A 13.073 13.073 0 0 1 71.3 70.6 A 13.696 13.696 0 0 1 68.399 66.971 A 11.752 11.752 0 0 1 67 61.3 A 11.978 11.978 0 0 1 70.779 52.438 A 15.724 15.724 0 0 1 71.3 51.95 Q 75.6 48.1 83.5 48.1 A 24.66 24.66 0 0 1 87.538 48.414 Q 90.047 48.83 92.1 49.8 A 19.917 19.917 0 0 1 95.649 51.929 A 16.203 16.203 0 0 1 98 54.1 L 98 58.6 Q 95.281 55.711 92.49 54.339 A 13.231 13.231 0 0 0 91.5 53.9 A 20.09 20.09 0 0 0 88.494 52.967 A 14.735 14.735 0 0 0 85.3 52.6 A 15.236 15.236 0 0 0 82.175 52.902 Q 79.596 53.442 77.8 54.95 Q 75 57.3 75 61.3 A 8.794 8.794 0 0 0 75.526 64.4 A 7.745 7.745 0 0 0 77.8 67.6 A 9.557 9.557 0 0 0 81.734 69.589 Q 83.151 69.949 84.819 69.994 A 17.842 17.842 0 0 0 85.3 70 A 14.832 14.832 0 0 0 88.64 69.6 A 20.25 20.25 0 0 0 91.5 68.7 Q 94.8 67.4 98 64 L 98 68.5 Z M 274.3 68.5 L 274.3 43.5 A 26.938 26.938 0 0 0 274.08 39.946 Q 273.597 36.322 272.05 33.95 A 7.071 7.071 0 0 0 268.229 31.091 Q 266.961 30.668 265.389 30.547 A 16.935 16.935 0 0 0 264.1 30.5 A 25.969 25.969 0 0 0 260.445 30.748 A 21.478 21.478 0 0 0 258.35 31.15 Q 255.7 31.8 253.4 33.5 A 6.814 6.814 0 0 1 254.505 34.264 Q 255.149 34.817 255.532 35.48 A 4.139 4.139 0 0 1 255.65 35.7 Q 256.3 37 256.3 38.5 Q 256.3 40.7 254.8 42.1 Q 253.3 43.5 251.3 43.5 A 4.737 4.737 0 0 1 247.841 42.092 A 5.686 5.686 0 0 1 247.75 42 Q 246.308 40.508 246.3 37.929 A 9.238 9.238 0 0 1 246.3 37.9 Q 246.3 35.3 247.9 33.2 A 12.455 12.455 0 0 1 250.33 30.809 A 16.032 16.032 0 0 1 252.2 29.6 A 22.673 22.673 0 0 1 256.417 27.805 A 26.966 26.966 0 0 1 258.25 27.3 Q 261.6 26.5 265 26.5 A 29.472 29.472 0 0 1 269.981 26.904 A 23.472 23.472 0 0 1 273.7 27.85 Q 277.6 29.2 279.95 32.55 A 11.505 11.505 0 0 1 281.513 35.862 Q 281.956 37.329 282.149 39.088 A 26.655 26.655 0 0 1 282.3 42 L 282.3 65.8 A 6.392 6.392 0 0 0 282.713 68.031 A 7.674 7.674 0 0 0 282.95 68.6 Q 283.6 70 285.5 70 A 3.595 3.595 0 0 0 287.922 69.069 A 4.62 4.62 0 0 0 288 69 A 16.947 16.947 0 0 0 289.593 67.332 A 19.715 19.715 0 0 0 290.1 66.7 L 292.8 69 A 18.186 18.186 0 0 1 291.055 71.125 A 15.637 15.637 0 0 1 290.2 71.95 Q 288.8 73.2 287.1 73.85 A 9.602 9.602 0 0 1 285.029 74.376 A 12.878 12.878 0 0 1 283.2 74.5 A 12.855 12.855 0 0 1 280.416 74.213 A 9.531 9.531 0 0 1 277.4 73 A 6.785 6.785 0 0 1 274.448 69.055 A 9.059 9.059 0 0 1 274.3 68.5 A 16.848 16.848 0 0 1 270.573 71.619 A 21.131 21.131 0 0 1 268.4 72.8 A 17.042 17.042 0 0 1 264.18 74.126 Q 262.287 74.474 260.128 74.498 A 29.006 29.006 0 0 1 259.8 74.5 Q 254.015 74.5 250.16 72.409 A 13.073 13.073 0 0 1 247.6 70.6 A 13.696 13.696 0 0 1 244.699 66.971 A 11.752 11.752 0 0 1 243.3 61.3 A 11.978 11.978 0 0 1 247.079 52.438 A 15.724 15.724 0 0 1 247.6 51.95 Q 251.9 48.1 259.8 48.1 A 24.66 24.66 0 0 1 263.838 48.414 Q 266.347 48.83 268.4 49.8 A 19.917 19.917 0 0 1 271.949 51.929 A 16.203 16.203 0 0 1 274.3 54.1 L 274.3 58.6 Q 271.581 55.711 268.79 54.339 A 13.231 13.231 0 0 0 267.8 53.9 A 20.09 20.09 0 0 0 264.794 52.967 A 14.735 14.735 0 0 0 261.6 52.6 A 15.236 15.236 0 0 0 258.475 52.902 Q 255.896 53.442 254.1 54.95 Q 251.3 57.3 251.3 61.3 A 8.794 8.794 0 0 0 251.826 64.4 A 7.745 7.745 0 0 0 254.1 67.6 A 9.557 9.557 0 0 0 258.034 69.589 Q 259.451 69.949 261.119 69.994 A 17.842 17.842 0 0 0 261.6 70 A 14.832 14.832 0 0 0 264.94 69.6 A 20.25 20.25 0 0 0 267.8 68.7 Q 271.1 67.4 274.3 64 L 274.3 68.5 Z M 134.8 65 L 134.8 94.5 L 135.3 95 L 146.8 95 L 146.8 98.5 L 118.8 98.5 L 118.8 95 L 126.3 95 L 126.8 94.5 L 126.8 31.5 L 126.3 31 L 118.8 31 L 118.8 27.5 A 249.041 249.041 0 0 0 123.543 27.456 A 227.804 227.804 0 0 0 123.85 27.45 Q 126.3 27.4 128.75 27.3 A 139.095 139.095 0 0 0 133.152 27.048 A 152.467 152.467 0 0 0 133.8 27 L 134.3 27.5 L 134.3 36 L 134.8 36 A 17.166 17.166 0 0 1 137.331 32.524 Q 138.606 31.149 140.267 29.865 A 29.446 29.446 0 0 1 140.75 29.5 A 15.084 15.084 0 0 1 147.36 26.764 A 20.33 20.33 0 0 1 150.7 26.5 A 20.763 20.763 0 0 1 157.186 27.486 A 18.426 18.426 0 0 1 161.35 29.45 A 19.798 19.798 0 0 1 167.956 36.45 A 24.01 24.01 0 0 1 168.65 37.75 A 24.942 24.942 0 0 1 170.863 44.755 A 33.662 33.662 0 0 1 171.3 50.3 Q 171.3 57.5 168.65 62.95 A 22.054 22.054 0 0 1 164.798 68.576 A 19.605 19.605 0 0 1 161.35 71.45 A 18.716 18.716 0 0 1 151.816 74.473 A 22.888 22.888 0 0 1 150.7 74.5 A 23.088 23.088 0 0 1 146.488 74.138 Q 144.101 73.695 142.19 72.709 A 12.622 12.622 0 0 1 140.55 71.7 A 19.199 19.199 0 0 1 136.666 67.987 A 16.847 16.847 0 0 1 134.8 65 Z M 337.1 62.8 L 339.8 65.1 Q 337.7 67.6 335.05 69.75 A 20.627 20.627 0 0 1 330.569 72.497 A 24.475 24.475 0 0 1 328.85 73.2 A 19.878 19.878 0 0 1 325.269 74.122 Q 323.564 74.406 321.621 74.476 A 36.267 36.267 0 0 1 320.3 74.5 Q 314.2 74.5 308.95 71.6 Q 303.7 68.7 300.5 63.3 Q 297.3 57.9 297.3 50.5 A 28.73 28.73 0 0 1 297.991 44.052 A 22.074 22.074 0 0 1 300.5 37.7 Q 303.7 32.3 308.95 29.4 Q 314.2 26.5 320.3 26.5 Q 326.5 26.5 330.95 28.9 A 16.023 16.023 0 0 1 337.29 35.158 A 19.86 19.86 0 0 1 337.85 36.2 A 21.493 21.493 0 0 1 339.588 41.248 Q 340.1 43.593 340.244 46.314 A 41.396 41.396 0 0 1 340.3 48.5 L 305.3 48.5 L 305.3 45 L 330.7 45 A 37.778 37.778 0 0 0 330.25 40.822 Q 329.903 38.768 329.329 37.08 A 15.083 15.083 0 0 0 327.85 33.9 A 8.009 8.009 0 0 0 322.403 30.244 A 13.111 13.111 0 0 0 319.8 30 Q 314.9 30 311.85 32.6 A 13.315 13.315 0 0 0 308.698 36.62 A 18.408 18.408 0 0 0 307.4 39.85 A 31.784 31.784 0 0 0 306.318 45.088 A 43.829 43.829 0 0 0 306 50.5 A 26.849 26.849 0 0 0 306.533 55.969 A 20.823 20.823 0 0 0 308.2 60.9 A 20.205 20.205 0 0 0 310.91 65.104 A 16.645 16.645 0 0 0 314 67.95 Q 317.6 70.5 321.8 70.5 A 19.433 19.433 0 0 0 325.978 70.073 A 14.117 14.117 0 0 0 330.75 68.1 A 36.203 36.203 0 0 0 335.32 64.564 A 31.417 31.417 0 0 0 337.1 62.8 Z M 0 6.5 L 29.5 6.5 Q 33.8 6.5 38.2 7.35 A 29.614 29.614 0 0 1 45.007 9.512 A 27.133 27.133 0 0 1 46.3 10.15 Q 50 12.1 52.25 15.4 A 12.495 12.495 0 0 1 54.1 19.784 Q 54.475 21.478 54.498 23.438 A 21.924 21.924 0 0 1 54.5 23.7 Q 54.5 28.5 52.1 32.05 Q 49.7 35.6 45.9 37.9 Q 42.1 40.2 37.75 41.35 A 35.567 35.567 0 0 1 32.999 42.28 A 28.697 28.697 0 0 1 29.5 42.5 L 13 42.5 L 17.5 38 L 17.5 69.5 L 18 70 L 26 70 L 26 73.5 L 0 73.5 L 0 70 L 8 70 L 8.5 69.5 L 8.5 10.5 L 8 10 L 0 10 L 0 6.5 Z M 371.8 73.5 L 347.8 73.5 L 347.8 70 L 355.3 70 L 355.8 69.5 L 355.8 4.5 L 355.3 4 L 347.8 4 L 347.8 0.5 Q 350.4 0.5 352.95 0.45 Q 355.5 0.4 358.1 0.3 Q 360.7 0.2 363.3 0 L 363.8 0.5 L 363.8 69.5 L 364.3 70 L 371.8 70 L 371.8 73.5 Z M 65.5 73.5 L 38.1 73.5 L 38.1 70 L 46.1 70 L 46.6 69.5 L 25.8 41.2 L 36.7 41.2 L 58 70 L 65.5 70 L 65.5 73.5 Z M 17.5 10.5 L 17.5 43.5 L 13 39 L 27.5 39 A 34.486 34.486 0 0 0 32.369 38.671 A 26.608 26.608 0 0 0 36.35 37.8 A 12.358 12.358 0 0 0 40.8 35.424 A 11.877 11.877 0 0 0 42.65 33.45 A 10.586 10.586 0 0 0 44.246 30.22 Q 45 27.785 45 24.5 Q 45 19.789 42.87 16.676 A 10.676 10.676 0 0 0 42.6 16.3 A 14.067 14.067 0 0 0 36.815 11.802 A 16.977 16.977 0 0 0 36.2 11.55 A 23.233 23.233 0 0 0 29.238 10.054 A 27.372 27.372 0 0 0 27.5 10 L 18 10 L 17.5 10.5 Z M 134.8 43 L 134.8 58 A 33.659 33.659 0 0 0 136.745 61.812 Q 138.847 65.319 141.4 67.2 A 15.231 15.231 0 0 0 144.905 69.163 A 12.026 12.026 0 0 0 149.3 70 A 12.124 12.124 0 0 0 154.56 68.878 A 12.095 12.095 0 0 0 158.65 65.65 A 12.842 12.842 0 0 0 160.802 61.82 Q 162.151 58.181 162.285 52.729 A 49.882 49.882 0 0 0 162.3 51.5 A 42.441 42.441 0 0 0 161.944 45.81 Q 161.551 42.919 160.728 40.554 A 17.807 17.807 0 0 0 158.65 36.35 A 14.084 14.084 0 0 0 155.966 33.359 A 10.215 10.215 0 0 0 149.3 31 A 12.369 12.369 0 0 0 143.44 32.51 A 16.353 16.353 0 0 0 141.4 33.8 A 15.589 15.589 0 0 0 138.478 36.669 Q 137.344 38.093 136.322 39.918 A 35.147 35.147 0 0 0 134.8 43 Z M 305.057 14.955 A 5.248 5.248 0 0 0 308.8 16.5 A 6.323 6.323 0 0 0 308.943 16.498 A 5.214 5.214 0 0 0 312.7 14.85 Q 314.3 13.2 314.3 11 Q 314.3 8.7 312.7 7.1 A 5.5 5.5 0 0 0 311.277 6.06 A 5.442 5.442 0 0 0 308.8 5.5 Q 306.6 5.5 304.95 7.1 A 6.31 6.31 0 0 0 304.848 7.201 A 5.214 5.214 0 0 0 303.3 11 A 5.168 5.168 0 0 0 303.752 13.152 A 5.75 5.75 0 0 0 304.95 14.85 A 6.89 6.89 0 0 0 305.057 14.955 Z M 325.057 14.955 A 5.248 5.248 0 0 0 328.8 16.5 A 6.323 6.323 0 0 0 328.943 16.498 A 5.214 5.214 0 0 0 332.7 14.85 Q 334.3 13.2 334.3 11 Q 334.3 8.7 332.7 7.1 A 5.5 5.5 0 0 0 331.277 6.06 A 5.442 5.442 0 0 0 328.8 5.5 Q 326.6 5.5 324.95 7.1 A 6.31 6.31 0 0 0 324.848 7.201 A 5.214 5.214 0 0 0 323.3 11 A 5.168 5.168 0 0 0 323.752 13.152 A 5.75 5.75 0 0 0 324.95 14.85 A 6.89 6.89 0 0 0 325.057 14.955 Z" vector-effect="non-scaling-stroke"/></g></svg>